<svg id="SvgjsSvg1001" width="288" height="288" xmlns="http://www.w3.org/2000/svg" version="1.1" xmlns:xlink="http://www.w3.org/1999/xlink" xmlns:svgjs="http://svgjs.com/svgjs"><defs id="SvgjsDefs1002"></defs><g id="SvgjsG1008"><svg xmlns="http://www.w3.org/2000/svg" width="288" height="288" fill="none" viewBox="0 0 20 18"><path fill="#2cd48e" fill-rule="evenodd" d="M15.7689 5.15593C15.7689 5.14679 15.7763 5.13938 15.7855 5.13938H17.8845C19.0528 5.13938 20.0615 4.15926 19.6629 3.06093C18.9518 1.10092 17.1442 0 14.5156 0H5.48444C2.03556 0 0 1.89519 0 5.098V12.0912C0 15.294 2.03556 17.1892 5.48444 17.1892H14.5156C17.9644 17.1892 20 15.294 20 12.0912C20 11.9266 19.8666 11.7932 19.7021 11.7932H15.7689C13.8052 11.7932 12.2133 10.3111 12.2133 8.48287C12.2133 6.65976 13.7962 5.18087 15.7523 5.17252C15.7614 5.17248 15.7689 5.16507 15.7689 5.15593ZM15.7689 6.56284H19.2533C19.6657 6.56284 20 6.87409 20 7.25803V9.67465C19.9952 10.0567 19.6637 10.3654 19.2533 10.3698H15.8489C14.8548 10.3823 13.9855 9.74856 13.76 8.84701C13.6471 8.28738 13.8056 7.7099 14.1931 7.26933C14.5805 6.82876 15.1573 6.57016 15.7689 6.56284ZM15.92 9.10357H16.2489C16.6711 9.10357 17.0133 8.78492 17.0133 8.39183C17.0133 7.99875 16.6711 7.6801 16.2489 7.6801H15.92C15.7181 7.67789 15.5236 7.75103 15.38 7.88319C15.2364 8.01536 15.1555 8.19555 15.1556 8.38356C15.1555 8.77799 15.4964 9.09903 15.92 9.10357ZM4.73778 5.13938H10.3822C10.8044 5.13938 11.1467 4.82073 11.1467 4.42764C11.1467 4.03456 10.8044 3.71591 10.3822 3.71591H4.73778C4.31903 3.71588 3.9782 4.02953 3.97333 4.41937C3.97331 4.8138 4.31415 5.13484 4.73778 5.13938Z" clip-rule="evenodd" class="color7848FF svgShape"></path></svg></g></svg>