<svg width="46" height="46" viewBox="0 0 46 46" fill="none" xmlns="http://www.w3.org/2000/svg">
<path d="M44.5257 46.0001H1.47436C0.660121 46.0001 0 45.34 0 44.5257V7.75268C0 7.12942 0.391885 6.57348 0.97878 6.36412L18.5728 0.085797C19.0243 -0.0753016 19.5261 -0.00689113 19.9178 0.269306C20.3096 0.545503 20.5428 0.994987 20.5428 1.47435V39.6112H17.5941V3.56588L2.94872 8.792V43.0514H43.0514V8.792L28.406 3.56588V39.7095H25.4573V1.47435C25.4573 0.994987 25.6904 0.545503 26.0822 0.269306C26.474 -0.00698944 26.9756 -0.0753016 27.4272 0.085797L45.0212 6.36412C45.6082 6.57358 46 7.12951 46 7.75268V44.5257C46.0001 45.34 45.34 46.0001 44.5257 46.0001Z" fill="#151B26"/>
<path d="M26.9511 8.55273H19.0508V11.5015H26.9511V8.55273Z" fill="#151B26"/>
<path d="M34.0347 8.97656H31.0859V12.942H34.0347V8.97656Z" fill="#151B26"/>
<path d="M34.0347 18.043H31.0859V22.0084H34.0347V18.043Z" fill="#151B26"/>
<path d="M34.0347 27.0137H31.0859V30.9791H34.0347V27.0137Z" fill="#151B26"/>
<path d="M40.3393 18.043H37.3906V22.0084H40.3393V18.043Z" fill="#151B26"/>
<path d="M40.3393 27.0137H37.3906V30.9791H40.3393V27.0137Z" fill="#151B26"/>
<path d="M34.0347 36.0801H31.0859V40.0455H34.0347V36.0801Z" fill="#151B26"/>
<path d="M40.3393 36.0801H37.3906V40.0455H40.3393V36.0801Z" fill="#151B26"/>
<path d="M14.9136 8.97656H11.9648V12.942H14.9136V8.97656Z" fill="#151B26"/>
<path d="M14.9136 18.043H11.9648V22.0084H14.9136V18.043Z" fill="#151B26"/>
<path d="M14.9136 27.0137H11.9648V30.9791H14.9136V27.0137Z" fill="#151B26"/>
<path d="M8.60888 18.043H5.66016V22.0084H8.60888V18.043Z" fill="#151B26"/>
<path d="M8.60888 27.0137H5.66016V30.9791H8.60888V27.0137Z" fill="#151B26"/>
<path d="M14.9136 36.0801H11.9648V40.0455H14.9136V36.0801Z" fill="#151B26"/>
<path d="M8.60888 36.0801H5.66016V40.0455H8.60888V36.0801Z" fill="#151B26"/>
</svg>
