<svg width="33" height="36" viewBox="0 0 33 36" fill="none" xmlns="http://www.w3.org/2000/svg">
<path d="M16.4346 20.8902C10.6886 20.8902 6.01172 16.2133 6.01172 10.4674C6.01172 4.72146 10.6886 0 16.4346 0C22.1805 0 26.8574 4.67691 26.8574 10.4228C26.8574 16.1688 22.1805 20.8902 16.4346 20.8902ZM16.4346 3.56336C12.6485 3.56336 9.53054 6.63676 9.53054 10.4674C9.53054 14.298 12.6485 17.3269 16.4346 17.3269C20.2206 17.3269 23.3386 14.2535 23.3386 10.4228C23.3386 6.59222 20.2206 3.56336 16.4346 3.56336Z" fill="#151B26"/>
<path d="M31.0903 35.4993C30.1104 35.4993 29.3087 34.6976 29.3087 33.7176C29.3087 26.6355 23.5627 20.845 16.436 20.845C9.30929 20.845 3.56336 26.6355 3.56336 33.7176C3.56336 34.6976 2.76161 35.4993 1.78168 35.4993C0.801757 35.4993 0 34.6976 0 33.7176C0 24.6756 7.34944 17.3262 16.3915 17.3262C25.4335 17.3262 32.7829 24.6756 32.7829 33.7176C32.8275 34.6976 32.0703 35.4993 31.0903 35.4993Z" fill="#151B26"/>
</svg>
