<svg width="18" height="18" viewBox="0 0 18 18" fill="none" xmlns="http://www.w3.org/2000/svg">
<path d="M3 3.8H15V2.2H3V3.8ZM15 16.2H3V17.8H15V16.2ZM1.8 15V7.375H0.2V15H1.8ZM16.2 5V7.375H17.8V5H16.2ZM16.2 7.375V15H17.8V7.375H16.2ZM1.8 7.375V5H0.2V7.375H1.8ZM15 17.8C16.5464 17.8 17.8 16.5464 17.8 15H16.2C16.2 15.6627 15.6627 16.2 15 16.2V17.8ZM3 16.2C2.33726 16.2 1.8 15.6627 1.8 15H0.2C0.2 16.5464 1.4536 17.8 3 17.8V16.2ZM15 3.8C15.6627 3.8 16.2 4.33726 16.2 5H17.8C17.8 3.4536 16.5464 2.2 15 2.2V3.8ZM3 2.2C1.4536 2.2 0.2 3.4536 0.2 5H1.8C1.8 4.33726 2.33726 3.8 3 3.8V2.2Z" fill="#292C35"/>
<path d="M5 8H13" stroke="#292C35" stroke-width="1.6" stroke-linecap="round"/>
<path d="M13 4.5V1.5" stroke="#292C35" stroke-width="1.6" stroke-linecap="round"/>
<path d="M5 4.5V1.5" stroke="#292C35" stroke-width="1.6" stroke-linecap="round"/>
</svg>
