<svg width="225" height="162" viewBox="0 0 225 162" fill="none" xmlns="http://www.w3.org/2000/svg">
<path fill-rule="evenodd" clip-rule="evenodd" d="M91.2954 147.351C91.2954 148.998 79.0503 150.333 64.2756 150.333C48.8408 150.333 36.5957 148.998 36.5957 147.351C36.5957 145.706 48.8408 144.371 64.2756 144.371C79.0503 144.371 91.2954 145.706 91.2954 147.351Z" fill="#E4E4E4"/>
<path fill-rule="evenodd" clip-rule="evenodd" d="M23.6973 5.14671C23.6976 3.78383 24.2377 2.47669 25.1991 1.5119C26.1605 0.547107 27.4648 0.00340377 28.8259 0L85.4107 0L110.587 28.2471V99C110.587 101.841 108.285 104.143 105.444 104.143H28.84C28.1647 104.144 27.4958 104.011 26.8716 103.753C26.2474 103.495 25.6803 103.116 25.2026 102.637C24.7249 102.159 24.3461 101.592 24.0878 100.967C23.8295 100.342 23.6968 99.6724 23.6973 98.9961V5.14671Z" fill="#D2EAF7"/>
<path opacity="0.3" fill-rule="evenodd" clip-rule="evenodd" d="M79.6394 43.8795H85.0788V37.8174H79.6394V43.8795ZM79.6394 50.5485H85.0788V44.4864H79.6394V50.5485ZM79.6394 57.2175H85.0788V51.1541H79.6394V57.2175ZM79.6394 63.8865H85.0788V57.8231H79.6394V63.8865ZM79.6394 70.5542H85.0788V64.4934H79.6394V70.5555V70.5542ZM79.6394 77.2232H85.0788V71.1611H79.6394V77.2232ZM73.5951 77.2232H79.0346V71.1611H73.5951V77.2232ZM67.5522 77.2232H72.9916V71.1611H67.5522V77.2232ZM61.5093 77.2232H66.9474V71.1611H61.5093V77.2232ZM55.4651 77.2232H60.9045V71.1611H55.4651V77.2232ZM49.4221 77.2232H54.8603V71.1611H49.4221V77.2232ZM49.4221 70.5542H54.8603V64.4934H49.4221V70.5555V70.5542ZM49.4221 63.8865H54.8603V57.8231H49.4221V63.8865ZM49.4221 57.2175H54.8603V51.1541H49.4221V57.2175ZM49.4221 50.5485H54.8603V44.4864H49.4221V50.5485ZM49.4221 43.8795H54.8603V37.8174H49.4221V43.8795ZM55.4651 43.8795H60.9045V37.8174H55.4651V43.8795ZM61.5093 43.8795H66.9487V37.8174H61.508V43.8795H61.5093ZM67.5535 43.8795H72.9916V37.8174H67.5535V43.8795ZM73.5951 50.5485H79.0346V44.4864H73.5951V50.5485ZM73.5951 57.2175H79.0346V51.1541H73.5951V57.2175ZM73.5951 63.8865H79.0346V57.8231H73.5951V63.8865ZM73.5951 70.5542H79.0346V64.4934H73.5951V70.5555V70.5542ZM67.5522 70.5542H72.9916V64.4934H67.5522V70.5555V70.5542ZM61.5093 70.5542H66.9474V64.4934H61.5093V70.5555V70.5542ZM55.4651 70.5542H60.9045V64.4934H55.4651V70.5555V70.5542ZM55.4651 63.8865H60.9045V57.8231H55.4651V63.8865ZM55.4651 57.2175H60.9045V51.1541H55.4651V57.2175ZM55.4651 50.5485H60.9045V44.4864H55.4651V50.5485ZM61.5093 50.5485H66.9487V44.4864H61.508V50.5485H61.5093ZM67.5522 50.5485H72.9916V44.4864H67.5522V50.5485ZM67.5522 57.2175H72.9916V51.1541H67.5522V57.2175ZM67.5522 63.8865H72.9916V57.8231H67.5522V63.8865ZM61.5093 57.2162H66.9474V51.1528H61.5093V57.2162ZM61.5093 63.8852H66.9487V57.8218H61.508V63.8852H61.5093ZM73.5964 43.8782H79.0358V37.8161H73.5964V43.8782ZM90.8199 37.8161V37.2092H85.6836V31.4492H85.0801V37.2092H79.6394V31.4492H79.0358V37.2092H73.5951V31.4492H72.9916V37.2092H67.5522V31.4492H66.9487V37.2092H61.508V31.4492H60.9032V37.2092H55.4638V31.4492H54.8603V37.2092H49.4208V31.4492H48.816V37.2092H44.2832V37.8161H48.816V43.8782H44.2832V44.4851H48.816V50.5472H44.2832V51.1528H48.816V57.2162H44.2832V57.8218H48.816V63.8852H44.2832V64.4908H48.816V70.5529H44.2832V71.1598H48.816V77.2219H44.2832V77.8275H48.816V82.9819H49.4196V77.8275H54.859V82.9819H55.4638V77.8275H60.9032V82.9819H61.5067V77.8275H66.9474V82.9819H67.5509V77.8275H72.9903V82.9819H73.5939V77.8275H79.0346V82.9819H79.6381V77.8275H85.0775V82.9819H85.681V77.8275H90.8187V77.2232H85.6823V71.1598H90.8187V70.5529H85.6823V64.4934H90.8187V63.8878H85.6823V57.8244H90.8187V57.2188H85.6823V51.1554H90.8187V50.5498H85.6823V44.4876H90.8187V43.8808H85.6823V37.8186H90.8187L90.8199 37.8161Z" fill="#4EB7F5"/>
<path fill-rule="evenodd" clip-rule="evenodd" d="M0 23.7695H45.1384V49.8052H0V23.7695Z" fill="#5FCEF5"/>
<path fill-rule="evenodd" clip-rule="evenodd" d="M15.3571 35.1193C15.2921 34.8586 15.1955 34.6069 15.0695 34.3697C14.9495 34.1452 14.7894 33.9447 14.5969 33.7783C14.4056 33.6112 14.1796 33.4826 13.9228 33.3887C13.6331 33.2924 13.3291 33.2464 13.0239 33.2524C12.527 33.2524 12.0955 33.3527 11.7334 33.5546C11.3781 33.7488 11.0746 34.0257 10.8487 34.362C10.6145 34.7137 10.4433 35.1035 10.3428 35.514C10.2336 35.9434 10.1788 36.3849 10.1797 36.828C10.1797 37.2754 10.2336 37.7152 10.3428 38.1433C10.4532 38.574 10.6214 38.9572 10.8487 39.294C11.076 39.6322 11.37 39.9009 11.7347 40.104C12.0955 40.3046 12.527 40.4049 13.0239 40.4049C13.3912 40.4049 13.7148 40.3406 13.9947 40.2146C14.2694 40.0912 14.5152 39.9116 14.7164 39.6874C14.9204 39.4583 15.0802 39.1932 15.1876 38.9057C15.3019 38.6087 15.3751 38.2886 15.4098 37.9466H17.0098C16.9823 38.4765 16.8605 38.9972 16.6502 39.4843C16.4564 39.9366 16.174 40.3454 15.8195 40.6864C15.465 41.0274 15.0458 41.2937 14.5867 41.4694C14.0876 41.6587 13.5575 41.7525 13.0239 41.7459C12.3254 41.7459 11.6988 41.6173 11.1427 41.3602C10.6027 41.1117 10.1224 40.7499 9.7341 40.2994C9.34158 39.8398 9.0408 39.3091 8.84807 38.736C8.64009 38.1216 8.53635 37.4767 8.54118 36.828C8.54118 36.162 8.6439 35.5307 8.84936 34.9354C9.05481 34.3389 9.35015 33.8169 9.7341 33.3694C10.1193 32.922 10.588 32.5672 11.1427 32.3049C11.6988 32.0413 12.3241 31.9102 13.0239 31.9102C13.5491 31.9102 14.0422 31.9822 14.5058 32.1274C14.9681 32.2714 15.3777 32.4823 15.7321 32.7574C16.0865 33.0352 16.3716 33.3694 16.5899 33.7642C16.8082 34.1589 16.9443 34.6102 16.9969 35.1193H15.3571ZM21.0713 38.3927C21.0713 38.7527 21.133 39.06 21.2562 39.3133C21.3782 39.5679 21.549 39.7762 21.7673 39.9382C21.9856 40.1002 22.2373 40.2197 22.5211 40.2943C22.8036 40.3689 23.1118 40.4062 23.4456 40.4062C23.8039 40.4062 24.1095 40.3637 24.3625 40.2802C24.6167 40.1979 24.8222 40.0899 24.9788 39.9587C25.1284 39.838 25.2457 39.6821 25.3204 39.5049C25.3897 39.3339 25.4244 39.1603 25.4244 38.9854C25.4244 38.6254 25.3435 38.3606 25.1817 38.1896C25.0354 38.0292 24.8538 37.9051 24.6514 37.827C24.2709 37.6907 23.8834 37.5748 23.4906 37.4799C22.9455 37.3427 22.4019 37.2 21.8598 37.0517C21.5056 36.9667 21.1669 36.827 20.8556 36.6377C20.611 36.4869 20.3957 36.2931 20.22 36.0656C20.0679 35.8647 19.9546 35.637 19.8861 35.3944C19.8211 35.1591 19.7882 34.916 19.7885 34.6719C19.7885 34.1987 19.8861 33.7886 20.0839 33.4414C20.2791 33.0956 20.5397 32.8089 20.862 32.58C21.1869 32.3524 21.5529 32.184 21.9638 32.0747C22.3747 31.9642 22.7894 31.9102 23.2093 31.9102C23.6973 31.9102 24.1596 31.9744 24.5923 32.1004C25.0251 32.229 25.4051 32.4193 25.7326 32.6726C26.0613 32.9272 26.3207 33.2409 26.512 33.6124C26.7046 33.9853 26.8009 34.4173 26.8009 34.9084H25.1625C25.1188 34.3042 24.9133 33.876 24.5461 33.6266C24.1788 33.3759 23.7114 33.2524 23.1439 33.2524C22.9512 33.2524 22.7548 33.2704 22.5532 33.3103C22.3529 33.3502 22.1692 33.4157 22.0036 33.507C21.8385 33.5983 21.6969 33.7268 21.5901 33.8824C21.4762 34.058 21.4192 34.2646 21.427 34.4739C21.427 34.8082 21.5298 35.0692 21.7352 35.2569C21.9407 35.4459 22.209 35.5886 22.5403 35.685L22.9538 35.7969C23.1939 35.8612 23.4623 35.9344 23.7602 36.0129C24.0568 36.0926 24.3471 36.1684 24.6321 36.243C24.9159 36.3189 25.1201 36.3716 25.2408 36.4076C25.5464 36.504 25.8148 36.6352 26.0408 36.8023C26.2681 36.9694 26.4581 37.1597 26.6109 37.3744C26.765 37.5892 26.878 37.8193 26.9512 38.0649C27.0257 38.3092 27.0629 38.5547 27.0629 38.8003C27.0629 39.3274 26.9563 39.7774 26.7419 40.149C26.5287 40.5219 26.2462 40.8253 25.8969 41.0619C25.533 41.3052 25.1286 41.4815 24.7027 41.5826C24.2573 41.6918 23.8002 41.7466 23.3416 41.7459C22.8074 41.7459 22.3041 41.6816 21.8328 41.5492C21.3863 41.4305 20.9675 41.2252 20.6001 40.9449C20.2442 40.6649 19.9573 40.3069 19.7616 39.8983C19.551 39.474 19.4431 38.9726 19.4341 38.394H21.0726L21.0713 38.3927ZM28.9236 32.1339H30.6275L32.9749 39.564H33.0005L35.4005 32.1326H37.0647L33.8673 41.5234H32.0439L28.9236 32.1339Z" fill="white"/>
<path fill-rule="evenodd" clip-rule="evenodd" d="M85.5801 0.0507812L110.794 28.5139H93.2833C89.3142 28.5139 85.8151 26.0029 85.8151 21.8218C85.8151 17.6406 85.5801 0.0507812 85.5801 0.0507812Z" fill="#2B81CB"/>
<path fill-rule="evenodd" clip-rule="evenodd" d="M219.791 132.159H102.939C101.577 132.159 100.27 131.617 99.3071 130.653C98.3439 129.688 97.8027 128.38 97.8027 127.016V40.8733C97.8027 39.5094 98.3439 38.2012 99.3071 37.2368C100.27 36.2723 101.577 35.7305 102.939 35.7305H219.791C221.154 35.7305 222.46 36.2723 223.423 37.2368C224.387 38.2012 224.928 39.5094 224.928 40.8733V127.016C224.928 128.38 224.387 129.688 223.423 130.653C222.46 131.617 221.154 132.159 219.791 132.159Z" fill="white"/>
<mask id="mask0" mask-type="alpha" maskUnits="userSpaceOnUse" x="97" y="35" width="128" height="20">
<path d="M97.8008 54.0005V40.8733C97.8008 40.1978 97.9337 39.529 98.1919 38.9049C98.4501 38.2809 98.8285 37.7139 99.3056 37.2363C99.7827 36.7587 100.349 36.38 100.972 36.1216C101.596 35.8632 102.264 35.7303 102.938 35.7305H219.791C221.153 35.7308 222.459 36.2728 223.422 37.2372C224.385 38.2017 224.926 39.5096 224.926 40.8733V54.0005H97.8008Z" fill="white"/>
</mask>
<g mask="url(#mask0)">
<path fill-rule="evenodd" clip-rule="evenodd" d="M92.4531 54.0022H236.271V30.8594H92.4531V54.0022Z" fill="#5FCEF5"/>
</g>
<path fill-rule="evenodd" clip-rule="evenodd" d="M114.421 72.9821C114.421 74.0051 114.015 74.9862 113.293 75.7096C112.571 76.4329 111.591 76.8393 110.569 76.8393C109.547 76.8393 108.568 76.4329 107.845 75.7096C107.123 74.9862 106.717 74.0051 106.717 72.9821C106.717 71.9592 107.123 70.9781 107.845 70.2547C108.568 69.5314 109.547 69.125 110.569 69.125C111.591 69.125 112.571 69.5314 113.293 70.2547C114.015 70.9781 114.421 71.9592 114.421 72.9821ZM114.421 84.1794C114.421 85.2024 114.015 86.1835 113.293 86.9068C112.571 87.6302 111.591 88.0366 110.569 88.0366C109.547 88.0366 108.568 87.6302 107.845 86.9068C107.123 86.1835 106.717 85.2024 106.717 84.1794C106.717 83.1565 107.123 82.1754 107.845 81.452C108.568 80.7287 109.547 80.3223 110.569 80.3223C111.591 80.3223 112.571 80.7287 113.293 81.452C114.015 82.1754 114.421 83.1565 114.421 84.1794ZM114.421 95.3767C114.421 96.3997 114.015 97.3808 113.293 98.1041C112.571 98.8275 111.591 99.2339 110.569 99.2339C109.547 99.2339 108.568 98.8275 107.845 98.1041C107.123 97.3808 106.717 96.3997 106.717 95.3767C106.717 94.3537 107.123 93.3727 107.845 92.6493C108.568 91.9259 109.547 91.5196 110.569 91.5196C111.591 91.5196 112.571 91.9259 113.293 92.6493C114.015 93.3727 114.421 94.3537 114.421 95.3767ZM114.421 106.573C114.421 107.596 114.015 108.577 113.293 109.3C112.571 110.023 111.591 110.43 110.569 110.43C109.547 110.43 108.568 110.023 107.845 109.3C107.123 108.577 106.717 107.596 106.717 106.573C106.717 105.55 107.123 104.569 107.845 103.845C108.568 103.122 109.547 102.716 110.569 102.716C111.591 102.716 112.571 103.122 113.293 103.845C114.015 104.569 114.421 105.55 114.421 106.573Z" fill="#A7E3FA"/>
<path fill-rule="evenodd" clip-rule="evenodd" d="M110.617 44.7316C110.617 45.4136 110.346 46.0676 109.865 46.5499C109.383 47.0321 108.73 47.303 108.049 47.303C107.368 47.303 106.714 47.0321 106.233 46.5499C105.751 46.0676 105.48 45.4136 105.48 44.7316C105.48 44.0496 105.751 43.3955 106.233 42.9133C106.714 42.4311 107.368 42.1602 108.049 42.1602C108.73 42.1602 109.383 42.4311 109.865 42.9133C110.346 43.3955 110.617 44.0496 110.617 44.7316ZM118.562 44.7316C118.572 45.0759 118.514 45.419 118.39 45.7404C118.266 46.0617 118.079 46.3549 117.84 46.6024C117.6 46.8499 117.314 47.0467 116.997 47.1811C116.68 47.3155 116.339 47.3849 115.995 47.385C115.651 47.385 115.311 47.3159 114.994 47.1816C114.677 47.0473 114.39 46.8507 114.151 46.6033C113.911 46.3559 113.724 46.0629 113.6 45.7416C113.475 45.4202 113.417 45.0772 113.428 44.7329C113.449 44.0653 113.728 43.4321 114.207 42.9672C114.686 42.5023 115.327 42.2423 115.994 42.2421C116.661 42.2419 117.302 42.5017 117.781 42.9663C118.26 43.4309 118.54 44.064 118.562 44.7316Z" fill="white"/>
<path fill-rule="evenodd" clip-rule="evenodd" d="M187.604 158.922C187.604 160.569 175.359 161.903 160.584 161.903C145.149 161.903 132.904 160.569 132.904 158.922C132.904 157.276 145.149 155.941 160.584 155.941C175.359 155.941 187.604 157.276 187.604 158.922Z" fill="#E4E4E4"/>
<mask id="mask1" mask-type="alpha" maskUnits="userSpaceOnUse" x="115" y="-5" width="21" height="35">
<path d="M115.57 29.5714H135.473V-4.5H115.568L115.57 29.5714Z" fill="white"/>
</mask>
<g mask="url(#mask1)">
<path d="M114.285 6.42969H120.23C128.182 6.42969 134.831 13.0383 134.831 20.975V29.5725H133.547V20.975C133.547 13.7518 127.473 7.7154 120.229 7.7154H114.285V6.42969Z" fill="black"/>
</g>
<path d="M141.212 23.879L135.581 29.5156C135.359 29.7382 135.096 29.9149 134.805 30.0354C134.515 30.1559 134.204 30.2179 133.89 30.2179C133.575 30.2179 133.264 30.1559 132.974 30.0354C132.684 29.9149 132.42 29.7382 132.198 29.5156L126.568 23.8778L127.476 22.9688L133.106 28.6066C133.208 28.7099 133.331 28.7918 133.465 28.8478C133.6 28.9037 133.744 28.9325 133.89 28.9325C134.035 28.9325 134.179 28.9037 134.314 28.8478C134.449 28.7918 134.571 28.7099 134.674 28.6066L140.303 22.97L141.211 23.879H141.212Z" fill="black"/>
</svg>
