<svg width="20" height="20" viewBox="0 0 20 20" fill="none" xmlns="http://www.w3.org/2000/svg">
<path fill-rule="evenodd" clip-rule="evenodd" d="M15.18 2.40996C15.18 1.07998 16.26 0 17.59 0C18.92 0 20 1.07998 20 2.40996C20 3.73994 18.92 4.81993 17.59 4.81993C16.26 4.81993 15.18 3.73994 15.18 2.40996ZM11.33 12.7591L14.2199 9.03016L14.1799 9.05016C14.3399 8.83017 14.3699 8.55017 14.2599 8.30017C14.1509 8.05018 13.9099 7.88018 13.6509 7.86018C13.3799 7.83018 13.1109 7.95018 12.95 8.17018L10.531 11.3001L7.75995 9.12016C7.58995 8.99016 7.38995 8.93917 7.18995 8.96017C6.99095 8.99016 6.81096 9.09916 6.68996 9.25916L3.73098 13.1101L3.66998 13.2001C3.49998 13.5191 3.57998 13.9291 3.87998 14.1501C4.01998 14.2401 4.16997 14.3001 4.33997 14.3001C4.57097 14.3101 4.78997 14.1891 4.92997 14.0001L7.43995 10.7691L10.29 12.9101L10.38 12.9691C10.7 13.1391 11.1 13.0601 11.33 12.7591ZM13.4499 1.78027C13.4099 2.03027 13.3899 2.28027 13.3899 2.53026C13.3899 4.78023 15.2099 6.5992 17.4499 6.5992C17.6999 6.5992 17.9399 6.5702 18.1899 6.5302V14.5991C18.1899 17.99 16.1899 20 12.79 20H5.40097C1.99999 20 0 17.99 0 14.5991V7.20019C0 3.80024 1.99999 1.78027 5.40097 1.78027H13.4499Z" fill="#519DFC"/>
</svg>
