<svg width="20" height="20" viewBox="0 0 20 20" fill="none" xmlns="http://www.w3.org/2000/svg">
<path fill-rule="evenodd" clip-rule="evenodd" d="M18.3993 7.14539L19.1195 7.8654C19.6897 8.42541 19.9998 9.18541 19.9998 9.98541C20.0098 10.7854 19.6997 11.5464 19.1395 12.1154C19.1329 12.1227 19.1262 12.1292 19.1195 12.1356C19.1162 12.1388 19.1129 12.1421 19.1095 12.1454L18.3993 12.8554C18.1192 13.1354 17.9591 13.5154 17.9591 13.9164V14.9454C17.9591 16.6054 16.6086 17.9564 14.948 17.9564H13.9176C13.5175 17.9564 13.1374 18.1154 12.8573 18.3954L12.1369 19.1154C11.5467 19.7064 10.7764 19.9954 10.0061 19.9954C9.23584 19.9954 8.46564 19.7064 7.87539 19.1264L7.14512 18.3954C6.86502 18.1154 6.48488 17.9564 6.08474 17.9564H5.05436C3.39375 17.9564 2.04326 16.6054 2.04326 14.9454V13.9164C2.04326 13.5154 1.88321 13.1354 1.6031 12.8454L0.882833 12.1354C-0.28759 10.9664 -0.29759 9.05541 0.872833 7.8764L1.6031 7.14539C1.88321 6.86539 2.04326 6.48539 2.04326 6.07539V5.05539C2.04326 3.39539 3.39375 2.04638 5.05436 2.04638H6.08474C6.48488 2.04638 6.86502 1.88538 7.14512 1.60538L7.86538 0.88538C9.03584 -0.293623 10.9465 -0.293622 12.1269 0.87638L12.8573 1.60538C13.1374 1.88538 13.5175 2.04638 13.9176 2.04638H14.948C16.6086 2.04638 17.9591 3.39539 17.9591 5.05539V6.08639C17.9591 6.48539 18.1192 6.86539 18.3993 7.14539ZM7.42523 13.4454C7.66531 13.4454 7.88539 13.3554 8.04544 13.1854L13.1874 8.04641C13.5275 7.7064 13.5275 7.14539 13.1874 6.80539C12.8472 6.46639 12.297 6.46639 11.9568 6.80539L6.815 11.9454C6.47488 12.2854 6.47488 12.8454 6.815 13.1854C6.97506 13.3554 7.19514 13.4454 7.42523 13.4454ZM11.6967 12.5654C11.6967 13.0554 12.0869 13.4454 12.5771 13.4454C13.0573 13.4454 13.4475 13.0554 13.4475 12.5654C13.4475 12.0864 13.0573 11.6954 12.5771 11.6954C12.0869 11.6954 11.6967 12.0864 11.6967 12.5654ZM7.43523 6.55539C7.9154 6.55539 8.30554 6.94539 8.30554 7.4254C8.30554 7.9164 7.9154 8.30541 7.43523 8.30541C6.95506 8.30541 6.55491 7.9164 6.55491 7.4254C6.55491 6.94539 6.95506 6.55539 7.43523 6.55539Z" fill="#5DD7A4"/>
</svg>
