<svg width="158" height="88" viewBox="0 0 158 88" fill="none" xmlns="http://www.w3.org/2000/svg">
<rect x="22" y="19" width="58" height="58" rx="29" fill="#7848FF"/>
<rect opacity="0.2" x="4" y="8" width="80" height="80" rx="40" fill="#7848FF"/>
<rect opacity="0.2" x="77.2354" y="73" width="14.4351" height="14.4351" rx="7.21754" transform="rotate(0.933132 77.2354 73)" fill="#7848FF"/>
<rect opacity="0.2" x="0.241211" width="14.812" height="14.812" rx="7.40598" transform="rotate(0.933132 0.241211 0)" fill="#7848FF"/>
<rect opacity="0.2" x="28.0049" y="0.918945" width="5.31705" height="5.31705" rx="2.65853" transform="rotate(0.933132 28.0049 0.918945)" fill="#7848FF"/>
<path d="M40.9316 44.9466H42.5372C44.1106 44.9466 45.272 44.6844 46.0213 44.1599C46.7706 43.6354 47.1452 42.8112 47.1452 41.6873C47.1452 40.5741 46.7599 39.782 45.9892 39.311C45.2292 38.84 44.0464 38.6046 42.4408 38.6046H40.9316V44.9466ZM40.9316 48.9927V58H35.9543V34.5264H42.7941C45.9838 34.5264 48.344 35.1097 49.8747 36.2765C51.4053 37.4325 52.1707 39.1933 52.1707 41.5588C52.1707 42.9396 51.7907 44.1706 51.0307 45.2517C50.2707 46.3221 49.195 47.1623 47.8035 47.7724C51.3358 53.0495 53.6371 56.4586 54.7075 58H49.1843L43.5808 48.9927H40.9316ZM64.7103 43.1965C63.672 43.1965 62.8585 43.5283 62.2698 44.192C61.6811 44.8449 61.3439 45.7762 61.2583 46.9857H68.1302C68.1088 45.7762 67.793 44.8449 67.1829 44.192C66.5728 43.5283 65.7486 43.1965 64.7103 43.1965ZM65.4007 58.3211C62.5106 58.3211 60.2521 57.5237 58.6251 55.9288C56.9981 54.3339 56.1846 52.0754 56.1846 49.1532C56.1846 46.1454 56.9339 43.8227 58.4324 42.185C59.9417 40.5366 62.0236 39.7124 64.6782 39.7124C67.215 39.7124 69.1899 40.4349 70.6028 41.8799C72.0157 43.325 72.7221 45.3212 72.7221 47.8688V50.245H61.1459C61.1994 51.6365 61.6115 52.723 62.3822 53.5044C63.1529 54.2858 64.234 54.6764 65.6255 54.6764C66.7066 54.6764 67.7288 54.5641 68.6921 54.3393C69.6555 54.1145 70.6616 53.7559 71.7106 53.2635V57.0527C70.8543 57.4809 69.9391 57.7966 68.9651 58C67.991 58.2141 66.8029 58.3211 65.4007 58.3211Z" fill="white"/>
<path d="M92.9249 38.3316C91.0518 38.3316 89.6014 39.0381 88.5738 40.451C87.5462 41.8532 87.0325 43.812 87.0325 46.3274C87.0325 51.5616 88.9966 54.1787 92.9249 54.1787C94.5733 54.1787 96.5696 53.7666 98.9138 52.9424V57.1169C96.9871 57.9197 94.8356 58.3211 92.4593 58.3211C89.0448 58.3211 86.433 57.2882 84.6241 55.2223C82.8151 53.1458 81.9106 50.1701 81.9106 46.2953C81.9106 43.8548 82.3549 41.7194 83.2433 39.889C84.1317 38.0479 85.4055 36.6404 87.0646 35.6663C88.7344 34.6816 90.6878 34.1892 92.9249 34.1892C95.2049 34.1892 97.4955 34.7404 99.7968 35.8429L98.1913 39.889C97.3135 39.4716 96.4305 39.1076 95.542 38.7972C94.6536 38.4868 93.7813 38.3316 92.9249 38.3316ZM114.937 58L113.99 55.5595H113.862C113.038 56.5978 112.187 57.3203 111.309 57.7271C110.442 58.1231 109.307 58.3211 107.905 58.3211C106.182 58.3211 104.822 57.8287 103.827 56.844C102.842 55.8592 102.35 54.457 102.35 52.6374C102.35 50.7321 103.013 49.3298 104.341 48.4307C105.679 47.5209 107.691 47.0178 110.378 46.9215L113.492 46.8251V46.0384C113.492 44.2187 112.561 43.3089 110.699 43.3089C109.264 43.3089 107.579 43.7424 105.641 44.6094L104.02 41.3019C106.085 40.2208 108.376 39.6803 110.891 39.6803C113.3 39.6803 115.146 40.2048 116.431 41.2538C117.715 42.3027 118.357 43.8976 118.357 46.0384V58H114.937ZM113.492 49.6831L111.598 49.7473C110.174 49.7901 109.115 50.047 108.419 50.518C107.723 50.989 107.375 51.7061 107.375 52.6695C107.375 54.0503 108.167 54.7407 109.751 54.7407C110.886 54.7407 111.791 54.4142 112.465 53.7613C113.15 53.1083 113.492 52.2413 113.492 51.1602V49.6831ZM128.312 58H123.415V33.0171H128.312V58ZM140.755 58.3211C135.168 58.3211 132.374 55.2545 132.374 49.1211C132.374 46.0705 133.134 43.7424 134.654 42.1368C136.174 40.5205 138.352 39.7124 141.189 39.7124C143.265 39.7124 145.128 40.1192 146.776 40.9326L145.331 44.7218C144.561 44.4114 143.843 44.1599 143.18 43.9672C142.516 43.7638 141.852 43.6621 141.189 43.6621C138.641 43.6621 137.368 45.4711 137.368 49.089C137.368 52.5999 138.641 54.3553 141.189 54.3553C142.131 54.3553 143.003 54.2322 143.806 53.986C144.609 53.7291 145.411 53.3331 146.214 52.7979V56.9885C145.422 57.4916 144.619 57.8394 143.806 58.0321C143.003 58.2248 141.986 58.3211 140.755 58.3211ZM149.698 55.704C149.698 54.8049 149.939 54.1252 150.421 53.6649C150.903 53.2047 151.604 52.9745 152.524 52.9745C153.413 52.9745 154.098 53.21 154.579 53.681C155.072 54.152 155.318 54.8263 155.318 55.704C155.318 56.5496 155.072 57.2186 154.579 57.711C154.087 58.1927 153.402 58.4335 152.524 58.4335C151.625 58.4335 150.929 58.198 150.437 57.7271C149.945 57.2454 149.698 56.571 149.698 55.704Z" fill="#142433"/>
</svg>
